{
   "accessors" : [
      {
         "bufferView" : 2,
         "byteOffset" : 0,
         "componentType" : 5126,
         "count" : 15418,
         "max" : [ 1, 1, 1, 1 ],
         "min" : [ 5.692175545846112e-05, 0.05284162610769272, 0, 1 ],
         "name" : "accessor_color_m0-PolyPaper17_-28910",
         "type" : "VEC4"
      },
      {
         "bufferView" : 2,
         "byteOffset" : 246688,
         "componentType" : 5126,
         "count" : 984,
         "max" : [ 1, 1, 1, 1 ],
         "min" : [ 1, 1, 1, 1 ],
         "name" : "accessor_color_m1-PolyGlass24_-28916",
         "type" : "VEC4"
      },
      {
         "bufferView" : 2,
         "byteOffset" : 262432,
         "componentType" : 5126,
         "count" : 72,
         "max" : [ 1, 1, 1, 1 ],
         "min" : [ 1, 1, 1, 1 ],
         "name" : "accessor_color_m2-PolyGem25_-28922",
         "type" : "VEC4"
      },
      {
         "bufferView" : 2,
         "byteOffset" : 263584,
         "componentType" : 5126,
         "count" : 5684,
         "max" : [ 1, 1, 1, 1 ],
         "min" : [ 0.006584956776350737, 0.006584956776350737, 0.006584956776350737, 1 ],
         "name" : "accessor_color_m3-PolyPaper17_-28928",
         "type" : "VEC4"
      },
      {
         "bufferView" : 0,
         "byteOffset" : 0,
         "componentType" : 5123,
         "count" : 23736,
         "max" : [ 15417 ],
         "min" : [ 0 ],
         "name" : "accessor_indices_0_m0-PolyPaper17_-28910",
         "type" : "SCALAR"
      },
      {
         "bufferView" : 0,
         "byteOffset" : 47472,
         "componentType" : 5123,
         "count" : 1452,
         "max" : [ 983 ],
         "min" : [ 0 ],
         "name" : "accessor_indices_0_m1-PolyGlass24_-28916",
         "type" : "SCALAR"
      },
      {
         "bufferView" : 0,
         "byteOffset" : 50376,
         "componentType" : 5123,
         "count" : 132,
         "max" : [ 71 ],
         "min" : [ 0 ],
         "name" : "accessor_indices_0_m2-PolyGem25_-28922",
         "type" : "SCALAR"
      },
      {
         "bufferView" : 0,
         "byteOffset" : 50640,
         "componentType" : 5123,
         "count" : 8802,
         "max" : [ 5683 ],
         "min" : [ 0 ],
         "name" : "accessor_indices_0_m3-PolyPaper17_-28928",
         "type" : "SCALAR"
      },
      {
         "bufferView" : 1,
         "byteOffset" : 185016,
         "componentType" : 5126,
         "count" : 15418,
         "max" : [ 1, 1, 1 ],
         "min" : [ -1, -1, -1 ],
         "name" : "accessor_normal_m0-PolyPaper17_-28910",
         "type" : "VEC3"
      },
      {
         "bufferView" : 1,
         "byteOffset" : 381840,
         "componentType" : 5126,
         "count" : 984,
         "max" : [ 1, 1, 1 ],
         "min" : [ -1, -1, -1 ],
         "name" : "accessor_normal_m1-PolyGlass24_-28916",
         "type" : "VEC3"
      },
      {
         "bufferView" : 1,
         "byteOffset" : 394512,
         "componentType" : 5126,
         "count" : 72,
         "max" : [ 0.9659262, 1, 0.9659257 ],
         "min" : [ -0.9659257, -1, -0.9659261 ],
         "name" : "accessor_normal_m2-PolyGem25_-28922",
         "type" : "VEC3"
      },
      {
         "bufferView" : 1,
         "byteOffset" : 463584,
         "componentType" : 5126,
         "count" : 5684,
         "max" : [ 1, 1, 1 ],
         "min" : [ -1, -1, -1 ],
         "name" : "accessor_normal_m3-PolyPaper17_-28928",
         "type" : "VEC3"
      },
      {
         "bufferView" : 1,
         "byteOffset" : 0,
         "componentType" : 5126,
         "count" : 15418,
         "max" : [ 4.790093, 0.4599327, 4.839971 ],
         "min" : [ -4.99008, -4.820075, -4.989977 ],
         "name" : "accessor_position_m0-PolyPaper17_-28910",
         "type" : "VEC3"
      },
      {
         "bufferView" : 1,
         "byteOffset" : 370032,
         "componentType" : 5126,
         "count" : 984,
         "max" : [ -0.7297958, 0.1066716, 4.088237 ],
         "min" : [ -4.228311, -2.947937, -4.869963 ],
         "name" : "accessor_position_m1-PolyGlass24_-28916",
         "type" : "VEC3"
      },
      {
         "bufferView" : 1,
         "byteOffset" : 393648,
         "componentType" : 5126,
         "count" : 72,
         "max" : [ -3.87008, -2.570028, 4.329972 ],
         "min" : [ -4.45008, -3.150029, 3.749971 ],
         "name" : "accessor_position_m2-PolyGem25_-28922",
         "type" : "VEC3"
      },
      {
         "bufferView" : 1,
         "byteOffset" : 395376,
         "componentType" : 5126,
         "count" : 5684,
         "max" : [ 3.149949, 0.4599472, 4.750023 ],
         "min" : [ -4.98008, -4.730029, -4.950029 ],
         "name" : "accessor_position_m3-PolyPaper17_-28928",
         "type" : "VEC3"
      }
   ],
   "asset" : {
      "copyright" : "Unknown",
      "extras" : {
         "GOOGLE_processor_version" : 294144208
      },
      "generator" : "glTF 1-to-2 Upgrader for Google Blocks",
      "version" : "2.0"
   },
   "bufferViews" : [
      {
         "buffer" : 0,
         "byteLength" : 68244,
         "byteOffset" : 0,
         "name" : "ushortBufferView",
         "target" : 34963
      },
      {
         "buffer" : 0,
         "byteLength" : 531792,
         "byteOffset" : 68244,
         "byteStride" : 12,
         "name" : "vec3BufferView",
         "target" : 34962
      },
      {
         "buffer" : 0,
         "byteLength" : 354528,
         "byteOffset" : 600036,
         "byteStride" : 16,
         "name" : "vec4BufferView",
         "target" : 34962
      }
   ],
   "buffers" : [
      {
         "byteLength" : 954564,
         "name" : "model",
         "uri" : "model.bin"
      }
   ],
   "cameras" : [
      {
         "perspective" : {
            "yfov" : 0.7853981633974483,
            "znear" : 0.1000000014901161
         },
         "type" : "perspective"
      }
   ],
   "extensions" : {
      "KHR_lights_punctual" : {
         "lights" : [
            {
               "color" : [ 1, 0.9333333333333333, 0.8666666666666667 ],
               "intensity" : 0.25,
               "name" : "headLight",
               "type" : "directional"
            },
            {
               "color" : [ 1, 0.9333333333333333, 0.8666666666666667 ],
               "intensity" : 0.324999988079071,
               "name" : "keyLight",
               "type" : "directional"
            }
         ]
      }
   },
   "extensionsUsed" : [ "GOOGLE_backgrounds", "GOOGLE_camera_settings", "KHR_lights_punctual" ],
   "extras" : {
      "GOOGLE_initial_camera_motion" : {
         "motionPath" : "FULL_ROTATION"
      },
      "GOOGLE_lighting_rig" : {
         "disableShadows" : false
      }
   },
   "materials" : [
      {
         "alphaMode" : "OPAQUE",
         "doubleSided" : false,
         "name" : "BlocksPaper",
         "pbrMetallicRoughness" : {
            "baseColorFactor" : [ 1, 1, 1, 1 ],
            "metallicFactor" : 0,
            "roughnessFactor" : 0.6
         }
      },
      {
         "alphaMode" : "BLEND",
         "doubleSided" : false,
         "name" : "BlocksGlass",
         "pbrMetallicRoughness" : {
            "baseColorFactor" : [ 0.2, 0.2, 1, 0.3 ],
            "metallicFactor" : 1,
            "roughnessFactor" : 0.4
         }
      },
      {
         "alphaMode" : "OPAQUE",
         "doubleSided" : true,
         "name" : "BlocksGem",
         "pbrMetallicRoughness" : {
            "baseColorFactor" : [ 1, 0.4, 1, 1 ],
            "metallicFactor" : 0,
            "roughnessFactor" : 0.1
         }
      }
   ],
   "meshes" : [
      {
         "name" : "mesh_m0-PolyPaper17_-28910",
         "primitives" : [
            {
               "attributes" : {
                  "COLOR_0" : 0,
                  "NORMAL" : 8,
                  "POSITION" : 12
               },
               "indices" : 4,
               "material" : 0,
               "mode" : 4
            }
         ]
      },
      {
         "name" : "mesh_m1-PolyGlass24_-28916",
         "primitives" : [
            {
               "attributes" : {
                  "COLOR_0" : 1,
                  "NORMAL" : 9,
                  "POSITION" : 13
               },
               "indices" : 5,
               "material" : 1,
               "mode" : 4
            }
         ]
      },
      {
         "name" : "mesh_m2-PolyGem25_-28922",
         "primitives" : [
            {
               "attributes" : {
                  "COLOR_0" : 2,
                  "NORMAL" : 10,
                  "POSITION" : 14
               },
               "indices" : 6,
               "material" : 2,
               "mode" : 4
            }
         ]
      },
      {
         "name" : "mesh_m3-PolyPaper17_-28928",
         "primitives" : [
            {
               "attributes" : {
                  "COLOR_0" : 3,
                  "NORMAL" : 11,
                  "POSITION" : 15
               },
               "indices" : 7,
               "material" : 0,
               "mode" : 4
            }
         ]
      }
   ],
   "nodes" : [
      {
         "mesh" : 3,
         "name" : "node_MeshObject-1212914688-PolyPaper17"
      },
      {
         "mesh" : 2,
         "name" : "node_MeshObject-1784993792-PolyGem25"
      },
      {
         "mesh" : 0,
         "name" : "node_MeshObject1365815296-PolyPaper17"
      },
      {
         "mesh" : 1,
         "name" : "node_MeshObject1937894400-PolyGlass24"
      },
      {
         "children" : [ 5 ]
      },
      {
         "children" : [ 6 ],
         "extras" : {
            "isTransformNode" : 1
         },
         "translation" : [ -0.1489170356815452, -2.204516181911743, -0.05072758419736043 ]
      },
      {
         "children" : [ 2, 3, 1, 0 ],
         "translation" : [ 0.1489170356815452, 2.204516181911743, 0.05072758419736043 ]
      },
      {
         "camera" : 0,
         "children" : [ 8 ],
         "rotation" : [
            -0.03948029365979397,
            0.9031215479631324,
            0.08509405617111125,
            0.419012860926201
         ],
         "translation" : [ 3.282577745133971, -1.356231074830335, -2.931842632257339 ]
      },
      {
         "extensions" : {
            "KHR_lights_punctual" : {
               "light" : 0
            }
         },
         "extras" : {
            "isHeadLight" : 1
         },
         "name" : "headLightNode",
         "translation" : [ -8.802283950795497, 4.401141975397748, 4.401141975397748 ]
      },
      {
         "extensions" : {
            "KHR_lights_punctual" : {
               "light" : 1
            }
         },
         "extras" : {
            "isKeyLight" : 1
         },
         "name" : "keyLightNode",
         "rotation" : [ -0.7505326882858236, -0.3752663441429118, 0, 0.5439447166468927 ],
         "scale" : [ 0, 0, 8.890306790303452 ],
         "translation" : [ -9.385016468528368, 16.08429087824975, -9.183402979040963 ]
      }
   ],
   "scene" : 0,
   "scenes" : [
      {
         "extensions" : {
            "GOOGLE_backgrounds" : {
               "color" : [ 0.1568627450980392, 0.207843137254902, 0.5764705882352941 ]
            },
            "GOOGLE_camera_settings" : {
               "pivot" : [ -0.124568576812738, -2.204638535976413, -0.05042827606202493 ]
            }
         },
         "extras" : {
            "GOOGLE_camera_index" : {
               "cameraIndex" : 0,
               "nodeIndex" : 7
            },
            "GOOGLE_geometry_data" : {
               "stats" : {
                  "centroid" : [ -0.4947096782249173, -1.696322702357158, -0.2930961887375118 ],
                  "radius" : 8.802283950795497,
                  "stdev" : 4.778209813163516
               },
               "visualCenterPoint" : [ -0.1489170356815452, -2.204516181911743, -0.05072758419736043 ]
            },
            "GOOGLE_hemi_light" : {
               "groundColor" : [ 0.1568627450980392, 0.207843137254902, 0.5764705882352941 ]
            }
         },
         "name" : "defaultScene",
         "nodes" : [ 4, 7, 9 ]
      }
   ]
}
