{
	"accessors" : 
	[
		{
			"bufferView" : 2,
			"byteOffset" : 0,
			"componentType" : 5126,
			"count" : 15418,
			"max" : 
			[
				1,
				1,
				1,
				1
			],
			"min" : 
			[
				5.692175545846112e-05,
				0.05284162610769272,
				0,
				1
			],
			"name" : "accessor_color_m0-PolyPaper17_-28910",
			"type" : "VEC4"
		},
		{
			"bufferView" : 2,
			"byteOffset" : 246688,
			"componentType" : 5126,
			"count" : 984,
			"max" : 
			[
				1,
				1,
				1,
				1
			],
			"min" : 
			[
				1,
				1,
				1,
				1
			],
			"name" : "accessor_color_m1-PolyGlass24_-28916",
			"type" : "VEC4"
		},
		{
			"bufferView" : 2,
			"byteOffset" : 262432,
			"componentType" : 5126,
			"count" : 72,
			"max" : 
			[
				1,
				1,
				1,
				1
			],
			"min" : 
			[
				1,
				1,
				1,
				1
			],
			"name" : "accessor_color_m2-PolyGem25_-28922",
			"type" : "VEC4"
		},
		{
			"bufferView" : 2,
			"byteOffset" : 263584,
			"componentType" : 5126,
			"count" : 5684,
			"max" : 
			[
				1,
				1,
				1,
				1
			],
			"min" : 
			[
				0.006584956776350737,
				0.006584956776350737,
				0.006584956776350737,
				1
			],
			"name" : "accessor_color_m3-PolyPaper17_-28928",
			"type" : "VEC4"
		},
		{
			"bufferView" : 0,
			"byteOffset" : 0,
			"componentType" : 5123,
			"count" : 23736,
			"max" : 
			[
				15417
			],
			"min" : 
			[
				0
			],
			"name" : "accessor_indices_0_m0-PolyPaper17_-28910",
			"type" : "SCALAR"
		},
		{
			"bufferView" : 0,
			"byteOffset" : 47472,
			"componentType" : 5123,
			"count" : 1452,
			"max" : 
			[
				983
			],
			"min" : 
			[
				0
			],
			"name" : "accessor_indices_0_m1-PolyGlass24_-28916",
			"type" : "SCALAR"
		},
		{
			"bufferView" : 0,
			"byteOffset" : 50376,
			"componentType" : 5123,
			"count" : 132,
			"max" : 
			[
				71
			],
			"min" : 
			[
				0
			],
			"name" : "accessor_indices_0_m2-PolyGem25_-28922",
			"type" : "SCALAR"
		},
		{
			"bufferView" : 0,
			"byteOffset" : 50640,
			"componentType" : 5123,
			"count" : 8802,
			"max" : 
			[
				5683
			],
			"min" : 
			[
				0
			],
			"name" : "accessor_indices_0_m3-PolyPaper17_-28928",
			"type" : "SCALAR"
		},
		{
			"bufferView" : 1,
			"byteOffset" : 185016,
			"componentType" : 5126,
			"count" : 15418,
			"max" : 
			[
				1,
				1,
				1
			],
			"min" : 
			[
				-1,
				-1,
				-1
			],
			"name" : "accessor_normal_m0-PolyPaper17_-28910",
			"type" : "VEC3"
		},
		{
			"bufferView" : 1,
			"byteOffset" : 381840,
			"componentType" : 5126,
			"count" : 984,
			"max" : 
			[
				1,
				1,
				1
			],
			"min" : 
			[
				-1,
				-1,
				-1
			],
			"name" : "accessor_normal_m1-PolyGlass24_-28916",
			"type" : "VEC3"
		},
		{
			"bufferView" : 1,
			"byteOffset" : 394512,
			"componentType" : 5126,
			"count" : 72,
			"max" : 
			[
				0.9659262,
				1,
				0.9659257
			],
			"min" : 
			[
				-0.9659257,
				-1,
				-0.9659261
			],
			"name" : "accessor_normal_m2-PolyGem25_-28922",
			"type" : "VEC3"
		},
		{
			"bufferView" : 1,
			"byteOffset" : 463584,
			"componentType" : 5126,
			"count" : 5684,
			"max" : 
			[
				1,
				1,
				1
			],
			"min" : 
			[
				-1,
				-1,
				-1
			],
			"name" : "accessor_normal_m3-PolyPaper17_-28928",
			"type" : "VEC3"
		},
		{
			"bufferView" : 1,
			"byteOffset" : 0,
			"componentType" : 5126,
			"count" : 15418,
			"max" : 
			[
				4.790093,
				0.4599327,
				4.839971
			],
			"min" : 
			[
				-4.99008,
				-4.820075,
				-4.989977
			],
			"name" : "accessor_position_m0-PolyPaper17_-28910",
			"type" : "VEC3"
		},
		{
			"bufferView" : 1,
			"byteOffset" : 370032,
			"componentType" : 5126,
			"count" : 984,
			"max" : 
			[
				-0.7297958,
				0.1066716,
				4.088237
			],
			"min" : 
			[
				-4.228311,
				-2.947937,
				-4.869963
			],
			"name" : "accessor_position_m1-PolyGlass24_-28916",
			"type" : "VEC3"
		},
		{
			"bufferView" : 1,
			"byteOffset" : 393648,
			"componentType" : 5126,
			"count" : 72,
			"max" : 
			[
				-3.87008,
				-2.570028,
				4.329972
			],
			"min" : 
			[
				-4.45008,
				-3.150029,
				3.749971
			],
			"name" : "accessor_position_m2-PolyGem25_-28922",
			"type" : "VEC3"
		},
		{
			"bufferView" : 1,
			"byteOffset" : 395376,
			"componentType" : 5126,
			"count" : 5684,
			"max" : 
			[
				3.149949,
				0.4599472,
				4.750023
			],
			"min" : 
			[
				-4.98008,
				-4.730029,
				-4.950029
			],
			"name" : "accessor_position_m3-PolyPaper17_-28928",
			"type" : "VEC3"
		}
	],
	"asset" : 
	{
		"copyright" : "Unknown",
		"generator" : "glTF 1-to-2 Upgrader for Google Blocks",
		"version" : "2.0"
	},
	"bufferViews" : 
	[
		{
			"buffer" : 0,
			"byteLength" : 68244,
			"byteOffset" : 0,
			"name" : "ushortBufferView",
			"target" : 34963
		},
		{
			"buffer" : 0,
			"byteLength" : 531792,
			"byteOffset" : 68244,
			"byteStride" : 12,
			"name" : "vec3BufferView",
			"target" : 34962
		},
		{
			"buffer" : 0,
			"byteLength" : 354528,
			"byteOffset" : 600036,
			"byteStride" : 16,
			"name" : "vec4BufferView",
			"target" : 34962
		}
	],
	"buffers" : 
	[
		{
			"byteLength" : 954564,
			"name" : "model",
			"uri" : "model.bin"
		}
	],
	"materials" : 
	[
		{
			"alphaMode" : "OPAQUE",
			"doubleSided" : false,
			"name" : "BlocksPaper",
			"pbrMetallicRoughness" : 
			{
				"baseColorFactor" : 
				[
					1,
					1,
					1,
					1
				],
				"metallicFactor" : 0,
				"roughnessFactor" : 0.6
			}
		},
		{
			"alphaMode" : "BLEND",
			"doubleSided" : false,
			"name" : "BlocksGlass",
			"pbrMetallicRoughness" : 
			{
				"baseColorFactor" : 
				[
					0.2,
					0.2,
					1,
					0.3
				],
				"metallicFactor" : 1,
				"roughnessFactor" : 0.4
			}
		},
		{
			"alphaMode" : "OPAQUE",
			"doubleSided" : true,
			"name" : "BlocksGem",
			"pbrMetallicRoughness" : 
			{
				"baseColorFactor" : 
				[
					1,
					0.4,
					1,
					1
				],
				"metallicFactor" : 0,
				"roughnessFactor" : 0.1
			}
		}
	],
	"meshes" : 
	[
		{
			"name" : "mesh_m0-PolyPaper17_-28910",
			"primitives" : 
			[
				{
					"attributes" : 
					{
						"COLOR_0" : 0,
						"NORMAL" : 8,
						"POSITION" : 12
					},
					"indices" : 4,
					"material" : 0,
					"mode" : 4
				}
			]
		},
		{
			"name" : "mesh_m1-PolyGlass24_-28916",
			"primitives" : 
			[
				{
					"attributes" : 
					{
						"COLOR_0" : 1,
						"NORMAL" : 9,
						"POSITION" : 13
					},
					"indices" : 5,
					"material" : 1,
					"mode" : 4
				}
			]
		},
		{
			"name" : "mesh_m2-PolyGem25_-28922",
			"primitives" : 
			[
				{
					"attributes" : 
					{
						"COLOR_0" : 2,
						"NORMAL" : 10,
						"POSITION" : 14
					},
					"indices" : 6,
					"material" : 2,
					"mode" : 4
				}
			]
		},
		{
			"name" : "mesh_m3-PolyPaper17_-28928",
			"primitives" : 
			[
				{
					"attributes" : 
					{
						"COLOR_0" : 3,
						"NORMAL" : 11,
						"POSITION" : 15
					},
					"indices" : 7,
					"material" : 0,
					"mode" : 4
				}
			]
		}
	],
	"nodes" : 
	[
		{
			"matrix" : 
			[
				1,
				0,
				0,
				0,
				0,
				1,
				0,
				0,
				0,
				0,
				1,
				0,
				0,
				0,
				0,
				1
			],
			"mesh" : 3,
			"name" : "node_MeshObject-1212914688-PolyPaper17"
		},
		{
			"matrix" : 
			[
				1,
				0,
				0,
				0,
				0,
				1,
				0,
				0,
				0,
				0,
				1,
				0,
				0,
				0,
				0,
				1
			],
			"mesh" : 2,
			"name" : "node_MeshObject-1784993792-PolyGem25"
		},
		{
			"matrix" : 
			[
				1,
				0,
				0,
				0,
				0,
				1,
				0,
				0,
				0,
				0,
				1,
				0,
				0,
				0,
				0,
				1
			],
			"mesh" : 0,
			"name" : "node_MeshObject1365815296-PolyPaper17"
		},
		{
			"matrix" : 
			[
				1,
				0,
				0,
				0,
				0,
				1,
				0,
				0,
				0,
				0,
				1,
				0,
				0,
				0,
				0,
				1
			],
			"mesh" : 1,
			"name" : "node_MeshObject1937894400-PolyGlass24"
		}
	],
	"scene" : 0,
	"scenes" : 
	[
		{
			"extras" : {},
			"name" : "defaultScene",
			"nodes" : 
			[
				2,
				3,
				1,
				0
			]
		}
	]
}