{
	"accessors" : 
	[
		{
			"bufferView" : 2,
			"byteOffset" : 0,
			"componentType" : 5126,
			"count" : 19052,
			"max" : 
			[
				1,
				1,
				1,
				1
			],
			"min" : 
			[
				0,
				0.08919350802898407,
				0,
				1
			],
			"name" : "accessor_color_m0-PolyPaper20_-30066",
			"type" : "VEC4"
		},
		{
			"bufferView" : 2,
			"byteOffset" : 304832,
			"componentType" : 5126,
			"count" : 4664,
			"max" : 
			[
				1,
				0.835527777671814,
				0.05459228157997131,
				1
			],
			"min" : 
			[
				0.006584956776350737,
				0.006584956776350737,
				0,
				1
			],
			"name" : "accessor_color_m1-PolyPaper13_-30072",
			"type" : "VEC4"
		},
		{
			"bufferView" : 0,
			"byteOffset" : 0,
			"componentType" : 5123,
			"count" : 28542,
			"max" : 
			[
				19051
			],
			"min" : 
			[
				0
			],
			"name" : "accessor_indices_0_m0-PolyPaper20_-30066",
			"type" : "SCALAR"
		},
		{
			"bufferView" : 0,
			"byteOffset" : 57084,
			"componentType" : 5123,
			"count" : 6996,
			"max" : 
			[
				4663
			],
			"min" : 
			[
				0
			],
			"name" : "accessor_indices_0_m1-PolyPaper13_-30072",
			"type" : "SCALAR"
		},
		{
			"bufferView" : 1,
			"byteOffset" : 228624,
			"componentType" : 5126,
			"count" : 19052,
			"max" : 
			[
				0.9997468,
				0.9991761,
				0.999705
			],
			"min" : 
			[
				-0.9999182,
				-0.9993030000000001,
				-0.9998927
			],
			"name" : "accessor_normal_m0-PolyPaper20_-30066",
			"type" : "VEC3"
		},
		{
			"bufferView" : 1,
			"byteOffset" : 513216,
			"componentType" : 5126,
			"count" : 4664,
			"max" : 
			[
				0.9976763,
				0.9978955,
				0.9961596
			],
			"min" : 
			[
				-0.9984057,
				-0.9970831,
				-0.9973501
			],
			"name" : "accessor_normal_m1-PolyPaper13_-30072",
			"type" : "VEC3"
		},
		{
			"bufferView" : 1,
			"byteOffset" : 0,
			"componentType" : 5126,
			"count" : 19052,
			"max" : 
			[
				1.095486,
				1.869235,
				-0.5018732
			],
			"min" : 
			[
				0.03973016,
				0.8075721,
				-0.8494996
			],
			"name" : "accessor_position_m0-PolyPaper20_-30066",
			"type" : "VEC3"
		},
		{
			"bufferView" : 1,
			"byteOffset" : 457248,
			"componentType" : 5126,
			"count" : 4664,
			"max" : 
			[
				1.108089,
				1.874009,
				-0.4773762
			],
			"min" : 
			[
				0.02628648,
				0.7801169,
				-0.7693126
			],
			"name" : "accessor_position_m1-PolyPaper13_-30072",
			"type" : "VEC3"
		}
	],
	"asset" : 
	{
		"copyright" : "Unknown",
		"generator" : "glTF 1-to-2 Upgrader for Google Blocks",
		"version" : "2.0"
	},
	"bufferViews" : 
	[
		{
			"buffer" : 0,
			"byteLength" : 71076,
			"byteOffset" : 0,
			"name" : "ushortBufferView",
			"target" : 34963
		},
		{
			"buffer" : 0,
			"byteLength" : 569184,
			"byteOffset" : 71076,
			"byteStride" : 12,
			"name" : "vec3BufferView",
			"target" : 34962
		},
		{
			"buffer" : 0,
			"byteLength" : 379456,
			"byteOffset" : 640260,
			"byteStride" : 16,
			"name" : "vec4BufferView",
			"target" : 34962
		}
	],
	"buffers" : 
	[
		{
			"byteLength" : 1019716,
			"name" : "model",
			"uri" : "model.bin"
		}
	],
	"materials" : 
	[
		{
			"alphaMode" : "OPAQUE",
			"doubleSided" : false,
			"name" : "BlocksPaper",
			"pbrMetallicRoughness" : 
			{
				"baseColorFactor" : 
				[
					1,
					1,
					1,
					1
				],
				"metallicFactor" : 0,
				"roughnessFactor" : 0.6
			}
		},
		{
			"alphaMode" : "BLEND",
			"doubleSided" : false,
			"name" : "BlocksGlass",
			"pbrMetallicRoughness" : 
			{
				"baseColorFactor" : 
				[
					0.2,
					0.2,
					1,
					0.3
				],
				"metallicFactor" : 1,
				"roughnessFactor" : 0.4
			}
		},
		{
			"alphaMode" : "OPAQUE",
			"doubleSided" : true,
			"name" : "BlocksGem",
			"pbrMetallicRoughness" : 
			{
				"baseColorFactor" : 
				[
					1,
					0.4,
					1,
					1
				],
				"metallicFactor" : 0,
				"roughnessFactor" : 0.1
			}
		}
	],
	"meshes" : 
	[
		{
			"name" : "mesh_m0-PolyPaper20_-30066",
			"primitives" : 
			[
				{
					"attributes" : 
					{
						"COLOR_0" : 0,
						"NORMAL" : 4,
						"POSITION" : 6
					},
					"indices" : 2,
					"material" : 0,
					"mode" : 4
				}
			]
		},
		{
			"name" : "mesh_m1-PolyPaper13_-30072",
			"primitives" : 
			[
				{
					"attributes" : 
					{
						"COLOR_0" : 1,
						"NORMAL" : 5,
						"POSITION" : 7
					},
					"indices" : 3,
					"material" : 0,
					"mode" : 4
				}
			]
		}
	],
	"nodes" : 
	[
		{
			"matrix" : 
			[
				1,
				0,
				0,
				0,
				0,
				1,
				0,
				0,
				0,
				0,
				1,
				0,
				0,
				0,
				0,
				1
			],
			"mesh" : 1,
			"name" : "node_MeshObject1577237504-PolyPaper13"
		},
		{
			"matrix" : 
			[
				1,
				0,
				0,
				0,
				0,
				1,
				0,
				0,
				0,
				0,
				1,
				0,
				0,
				0,
				0,
				1
			],
			"mesh" : 0,
			"name" : "node_MeshObject308889600-PolyPaper20"
		}
	],
	"scene" : 0,
	"scenes" : 
	[
		{
			"extras" : {},
			"name" : "defaultScene",
			"nodes" : 
			[
				1,
				0
			]
		}
	]
}
